<?xml version="1.0" encoding="utf-8"?>
<!-- Generator: Adobe Illustrator 28.0.0, SVG Export Plug-In . SVG Version: 6.00 Build 0)  -->
<svg version="1.1" id="Capa_1" xmlns="http://www.w3.org/2000/svg" xmlns:xlink="http://www.w3.org/1999/xlink" x="0px" y="0px"
	 viewBox="0 0 24 24" style="enable-background:new 0 0 24 24;" xml:space="preserve">
<path d="M0,16.1c0.1-0.2,0.1-0.5,0.3-0.7c0.2-0.5,0.6-0.8,1.1-1c-0.1-0.4-0.2-0.8-0.2-1.2c0-0.9,0.5-1.6,1.3-2s1.7-0.3,2.4,0.4
	S6.3,13,7,13.7c-0.1,0,0,0,0,0.1c2.3-2.3,4.5-4.5,6.8-6.8c0,0-0.1-0.1-0.2-0.2c-0.6-0.7-1.3-1.3-1.9-1.9c-1.2-1.3-0.7-3.3,1-3.8
	c0.6-0.2,1.2-0.1,1.7,0.2c0,0,0.1-0.1,0.1-0.2c0.7-1.3,2.4-1.6,3.5-0.6c0.4,0.4,0.8,0.8,1.2,1.2c0.2-0.2,0.4-0.5,0.6-0.7
	c1.2-1,3.3-0.4,3.6,1.3c0.2,0.7,0,1.4-0.5,1.9c-0.2,0.2-0.5,0.4-0.7,0.7c0.5,0.4,0.9,0.8,1.2,1.2c0.7,0.7,0.8,1.8,0.3,2.6
	c-0.2,0.4-0.4,0.6-1,0.9c0.1,0.4,0.2,0.8,0.2,1.2c0,0.9-0.5,1.6-1.3,2c-0.9,0.4-1.7,0.2-2.4-0.4c-0.7-0.6-1.3-1.3-2-1.9
	c-0.1-0.1-0.2-0.2-0.2-0.3c-2.3,2.3-4.5,4.5-6.8,6.8c0,0,0.1,0,0.2,0.1c0.7,0.7,1.4,1.4,2.1,2.1c1.1,1.2,0.6,3.2-1.1,3.6
	c-0.6,0.2-1.2,0.1-1.7-0.2l-0.1,0.1C9.3,23.4,8.7,23.9,8,24H7.9H7.3c-1.1-0.2-1.6-1.1-2.4-1.8c-0.2,0.2-0.4,0.5-0.7,0.7
	c-0.7,0.6-1.8,0.7-2.6,0.2c-1.2-0.7-1.5-2.4-0.5-3.4c0.2-0.2,0.4-0.4,0.7-0.7c-0.2-0.2-0.4-0.4-0.6-0.6c-0.5-0.5-1-1-1.2-1.8L0,16.1
	L0,16.1z M13.1,2.5c0,0-0.1,0-0.2,0c-0.6,0.2-0.8,0.9-0.3,1.4c2.5,2.5,4.9,4.9,7.4,7.4l0.1,0.1c0.5,0.4,1.1,0.2,1.3-0.4
	c0.1-0.4,0-0.6-0.2-0.9c-1.2-1.2-2.5-2.5-3.7-3.7S15.1,4,13.8,2.7C13.7,2.6,13.4,2.5,13.1,2.5L13.1,2.5z M11.6,20.7
	c0-0.3-0.1-0.5-0.3-0.7c-2.5-2.5-4.9-4.9-7.4-7.4l-0.1-0.1c-0.5-0.4-1.2-0.1-1.3,0.4c-0.1,0.3,0,0.6,0.3,0.8
	c1.8,1.8,3.5,3.5,5.3,5.3c0.7,0.7,1.4,1.4,2.1,2.1c0.3,0.3,0.6,0.3,0.9,0.2C11.4,21.3,11.6,21,11.6,20.7L11.6,20.7z M15.9,9.2
	c-0.4-0.4-0.8-0.8-1.1-1.1c-2.2,2.2-4.5,4.5-6.7,6.7c0.4,0.4,0.7,0.7,1.1,1.1C11.4,13.7,13.7,11.4,15.9,9.2z M8.4,21.8
	c0-0.3-0.1-0.5-0.3-0.6c-1.7-1.7-3.5-3.5-5.2-5.2c0-0.1-0.1-0.1-0.2-0.1c-0.4-0.4-1.1-0.2-1.3,0.4c-0.1,0.4,0,0.6,0.3,0.9
	c1.7,1.7,3.5,3.5,5.2,5.2c0.1,0,0.1,0.1,0.2,0.1c0.3,0.2,0.6,0.2,0.9,0.1C8.3,22.4,8.4,22.1,8.4,21.8L8.4,21.8z M16.4,1.4L16.4,1.4
	C16,1.5,15.7,1.6,15.6,2c-0.1,0.3-0.1,0.6,0.2,0.9c1.8,1.8,3.6,3.6,5.3,5.3c0.4,0.3,0.9,0.4,1.2,0c0.3-0.3,0.3-0.8,0-1.2
	c-1.8-1.8-3.5-3.5-5.3-5.3C16.9,1.5,16.6,1.5,16.4,1.4z M3.9,21.3c-0.4-0.4-0.8-0.8-1.2-1.2c-0.2,0.2-0.4,0.4-0.6,0.6
	c-0.3,0.3-0.3,0.8,0,1.1c0.3,0.3,0.8,0.3,1.1,0C3.5,21.7,3.7,21.5,3.9,21.3z M21.3,3.9c0.2-0.2,0.4-0.4,0.6-0.6
	c0.3-0.3,0.3-0.8,0-1.1s-0.8-0.4-1.1-0.1c-0.2,0.2-0.4,0.4-0.6,0.6C20.5,3.1,20.9,3.5,21.3,3.9z"/>
</svg>
