<?xml version="1.0" encoding="utf-8"?>
<!-- Generator: Adobe Illustrator 28.0.0, SVG Export Plug-In . SVG Version: 6.00 Build 0)  -->
<svg version="1.1" id="Capa_1" xmlns="http://www.w3.org/2000/svg" xmlns:xlink="http://www.w3.org/1999/xlink" x="0px" y="0px"
	 viewBox="0 0 24 24" style="enable-background:new 0 0 24 24;" xml:space="preserve">
<style type="text/css">
	.st0{fill:#FFFFFF;}
</style>
<path class="st0" d="M12,24c-2,0-3.9,0-5.9,0C2.6,24,0,21.4,0,17.9C0,13.9,0,10,0,6.1C0,2.6,2.6,0,6.1,0c4,0,7.9,0,11.9,0
	C21.4,0,24,2.6,24,6.1c0,3.9,0,7.9,0,11.8c0,3.5-2.6,6.1-6.1,6.1C15.9,24,14,24,12,24L12,24z M12,2.4c-1.9,0-3.8,0-5.8,0
	c-2.4,0-3.8,1.4-3.8,3.8c0,3.9,0,7.7,0,11.6c0,2.3,1.5,3.8,3.8,3.8c3.9,0,7.7,0,11.6,0c2.3,0,3.8-1.5,3.8-3.8c0-3.9,0-7.8,0-11.7
	c0-2.3-1.5-3.7-3.8-3.8C15.9,2.4,13.9,2.4,12,2.4L12,2.4z"/>
<path class="st0" d="M12,18c-3.4,0-6-2.6-6-6s2.7-6,6-6c3.3,0,6,2.7,6,6C18,15.4,15.4,18,12,18L12,18z M15.6,12
	c0-2.1-1.6-3.6-3.6-3.6S8.4,9.9,8.4,12c0,2.1,1.6,3.6,3.6,3.6C14.1,15.6,15.6,14,15.6,12L15.6,12z"/>
<path class="st0" d="M18,7.2c-0.6,0-1.2-0.6-1.2-1.2c0-0.7,0.6-1.2,1.3-1.2c0.6,0,1.2,0.6,1.1,1.2C19.2,6.7,18.6,7.2,18,7.2z"/>
</svg>
