<?xml version="1.0" encoding="utf-8"?>
<!-- Generator: Adobe Illustrator 28.0.0, SVG Export Plug-In . SVG Version: 6.00 Build 0)  -->
<svg version="1.1" id="Capa_1" xmlns="http://www.w3.org/2000/svg" xmlns:xlink="http://www.w3.org/1999/xlink" x="0px" y="0px"
	 viewBox="0 0 24 24" style="enable-background:new 0 0 24 24;" xml:space="preserve">
<style type="text/css">
	.st0{fill:#FFFFFF;}
</style>
<path class="st0" d="M12,20.4c-3,0-6,0-8.9,0c-1.9,0-3.1-1.2-3.1-3c0-3.6,0-7.2,0-10.8c0-1.8,1.2-3,3-3c6,0,12,0,18,0
	c1.8,0,3,1.2,3,3c0,3.6,0,7.2,0,10.8c0,1.9-1.2,3-3,3C18,20.4,15,20.4,12,20.4L12,20.4z M1.9,6.8c0,3.6,0,7.1,0,10.5
	c0,0.9,0.3,1.2,1.2,1.2c5.9,0,11.8,0,17.8,0c0.9,0,1.2-0.3,1.2-1.2c0-3.3,0-6.6,0-10V6.8c-0.2,0.2-0.3,0.3-0.4,0.4
	c-2.5,2.5-5,5.1-7.5,7.6c-1.4,1.4-3,1.4-4.4,0c-2.5-2.5-5-5.1-7.5-7.6C2.2,7.1,2.1,7,1.9,6.8L1.9,6.8z M3.2,5.4
	c0.2,0.2,0.2,0.3,0.3,0.4c2.5,2.6,5.1,5.1,7.6,7.7c0.6,0.6,1.1,0.6,1.7,0c2.6-2.6,5.1-5.2,7.7-7.8c0.1-0.1,0.1-0.2,0.2-0.3L3.2,5.4
	L3.2,5.4z"/>
</svg>
