<?xml version="1.0" encoding="utf-8"?>
<!-- Generator: Adobe Illustrator 28.0.0, SVG Export Plug-In . SVG Version: 6.00 Build 0)  -->
<svg version="1.1" id="Capa_1" xmlns="http://www.w3.org/2000/svg" xmlns:xlink="http://www.w3.org/1999/xlink" x="0px" y="0px"
	 viewBox="0 0 24 24" style="enable-background:new 0 0 24 24;" xml:space="preserve">
<path d="M4.5,12c0-1.2,0-2.4,0-3.6s0.4-2.1,1.2-2.9C5.9,5.3,6,5.1,6,4.9C6.2,4,6.3,3.1,6.4,2.2C6.7,0.7,7.5,0,9.1,0c2,0,3.9,0,5.9,0
	c1.4,0,2.3,0.7,2.5,2.1c0.2,1,0.3,1.9,0.5,2.8c0,0.2,0.1,0.4,0.3,0.5c0.8,0.8,1.2,1.7,1.2,2.9c0,2.4,0,4.9,0,7.4
	c0,1.1-0.4,2.1-1.2,2.9C18.1,18.7,18,18.9,18,19c-0.2,0.9-0.3,1.8-0.4,2.7C17.4,23.2,16.5,24,15,24c-2,0-3.9,0-5.9,0
	c-1.4,0-2.3-0.7-2.5-2.1C6.3,20.9,6.2,20,6,19c0-0.2-0.1-0.4-0.3-0.5c-0.8-0.8-1.2-1.7-1.2-2.9C4.5,14.4,4.5,13.2,4.5,12L4.5,12z
	 M18,12c0-1.2,0-2.5,0-3.7C18,7,17,6,15.7,6c-2.4,0-4.9,0-7.4,0C7,6,6,7,6,8.3c0,2.4,0,4.9,0,7.3C6,17,7,18,8.4,18
	c2.4,0,4.8,0,7.3,0c1.4,0,2.4-1,2.4-2.4C18,14.4,18,13.2,18,12L18,12z M7.6,4.5h8.7c-0.1-0.8-0.2-1.5-0.4-2.3
	c-0.1-0.4-0.4-0.7-0.8-0.7c-2.1,0-4.2,0-6.4,0C8.3,1.5,8,1.7,7.9,2.1C7.9,2.8,7.8,3.7,7.6,4.5L7.6,4.5z M7.6,19.5
	c0.1,0.8,0.3,1.6,0.4,2.4c0.1,0.4,0.4,0.6,0.8,0.6c2.1,0,4.2,0,6.4,0c0.4,0,0.7-0.2,0.7-0.5c0.2-0.8,0.3-1.6,0.4-2.5H7.6L7.6,19.5z"
	/>
<path d="M12.8,10.8c-0.5,1.2-1,2.3-1.4,3.4c-0.2,0.6-0.6,0.9-1.3,0.8c-0.6-0.1-1.2,0-1.8,0c-0.5,0-0.8-0.3-0.8-0.8
	c0-0.4,0.3-0.7,0.8-0.7c0.6,0,1.1,0,1.7,0c0.6-1.5,1.3-3,1.9-4.4C12,9,12,8.8,12.1,8.8c0.2-0.2,0.4-0.4,0.6-0.4
	c0.2,0,0.6,0.2,0.7,0.4c0.4,0.7,0.8,1.5,1.1,2.2c0.1,0.3,0.3,0.4,0.6,0.4c0.2,0,0.5,0,0.7,0c0.4,0,0.7,0.4,0.7,0.7
	c0,0.4-0.3,0.7-0.7,0.7c-0.5,0-1.1,0.1-1.6,0c-0.2,0-0.5-0.3-0.7-0.5C13.3,11.8,13.1,11.3,12.8,10.8L12.8,10.8z"/>
</svg>
