<?xml version="1.0" encoding="utf-8"?>
<!-- Generator: Adobe Illustrator 28.0.0, SVG Export Plug-In . SVG Version: 6.00 Build 0)  -->
<svg version="1.1" id="Capa_1" xmlns="http://www.w3.org/2000/svg" xmlns:xlink="http://www.w3.org/1999/xlink" x="0px" y="0px"
	 viewBox="0 0 24 24" style="enable-background:new 0 0 24 24;" xml:space="preserve">
<style type="text/css">
	.st0{fill:#FFFFFF;}
</style>
<path class="st0" d="M20.5,3.5C18.2,1.2,15.2,0,12,0l0,0C5.4,0,0,5.4,0,12c0,3.2,1.2,6.2,3.5,8.5S8.8,24,12,24h0
	c3.2,0,6.2-1.2,8.5-3.5c2.3-2.3,3.5-5.3,3.5-8.5S22.7,5.8,20.5,3.5L20.5,3.5z M22.3,12c0,5.7-4.6,10.3-10.3,10.3h0
	c-2.8,0-5.3-1.1-7.3-3c-2-2-3-4.6-3-7.3C1.7,6.3,6.3,1.7,12,1.7S22.3,6.3,22.3,12z"/>
<path class="st0" d="M8.1,15.7c1.8,1.8,3.6,2.8,5.5,3.3c0.5,0.1,0.9,0.2,1.4,0.2c0.9,0,1.6-0.3,2.2-0.8c0.5-0.4,1-0.9,1.5-1.5
	c0.8-0.9,0.7-2,0-2.8c-0.4-0.5-0.9-0.9-1.4-1.4c-0.9-0.8-2.1-0.8-2.9,0c-0.2,0.2-0.3,0.4-0.5,0.5c0,0-0.1,0.1-0.1,0.1l-3.2-3.2
	c0,0,0.1-0.1,0.1-0.1c0.2-0.1,0.4-0.3,0.6-0.5c0.8-0.8,0.8-2,0-2.8c-0.5-0.5-1-1-1.5-1.5C9,4.5,7.9,4.5,7.1,5.2
	C6.9,5.4,6.8,5.6,6.6,5.7C6.5,5.8,6.3,6,6.2,6.1C4.9,7.2,4.6,8.6,5,10.4C5.4,12.3,6.5,14,8.1,15.7L8.1,15.7z M7.8,6.9
	C7.9,6.8,8,6.7,8.1,6.6c0.2-0.2,0.5-0.2,0.7,0c0.4,0.4,0.9,0.8,1.3,1.3c0.2,0.2,0.2,0.5,0,0.7C9.9,8.7,9.7,8.9,9.5,9.1
	C9.3,9.2,9.2,9.4,9,9.6c-0.5,0.5-0.5,0.9,0,1.4c1.4,1.4,2.7,2.8,4,4c0.5,0.5,0.9,0.5,1.4,0c0.2-0.2,0.3-0.3,0.5-0.5
	c0.2-0.2,0.4-0.4,0.5-0.5c0.3-0.3,0.5-0.3,0.8,0c0.4,0.4,0.8,0.8,1.2,1.2c0.2,0.2,0.2,0.5,0,0.7c-0.4,0.4-0.7,0.7-1.1,1.1
	c-0.4,0.3-0.8,0.5-1.4,0.5c-1-0.1-2.1-0.4-3.1-1.1c-2.4-1.5-4-3.4-4.9-5.8C6.7,10.4,6.6,10,6.5,9.6C6.4,8.7,6.6,8,7.2,7.5
	C7.4,7.3,7.6,7.1,7.8,6.9L7.8,6.9z"/>
</svg>
