<?xml version="1.0" encoding="utf-8"?>
<!-- Generator: Adobe Illustrator 28.0.0, SVG Export Plug-In . SVG Version: 6.00 Build 0)  -->
<svg version="1.1" id="Capa_1" xmlns="http://www.w3.org/2000/svg" xmlns:xlink="http://www.w3.org/1999/xlink" x="0px" y="0px"
	 viewBox="0 0 24 24" style="enable-background:new 0 0 24 24;" xml:space="preserve">
<path d="M12.1,0.4c3,0,6,0,9,0c1.8,0,3,1.1,3,3c0,3.7,0,7.5,0,11.2c0,1.9-1.1,3-3,3c-1.2,0-2.5,0-3.7,0c-0.7,0-1.1-0.3-1.1-0.9
	s0.4-0.9,1.1-0.9c1.2,0,2.5,0,3.8,0c0.8,0,1.2-0.4,1.2-1.2c0-3.8,0-7.6,0-11.4C22.4,2.4,22,2,21.2,2C15.1,2,9.1,2,3,2
	C2.2,2,1.8,2.4,1.8,3.2c0,3.8,0,7.6,0,11.4c0,0.8,0.4,1.2,1.2,1.2c3.2,0,6.4,0,9.6,0c0.2,0,0.3,0,0.5,0c0.5,0.1,0.7,0.4,0.8,0.8
	c0,0.5-0.3,0.8-0.7,0.9c-0.1,0-0.3,0-0.4,0c-3.2,0-6.4,0-9.6,0c-1.9,0-3-1.1-3-3c0-3.8,0-7.5,0-11.2c0-1.8,1.1-2.9,3-2.9
	C6,0.4,9,0.4,12.1,0.4z"/>
<path d="M7.2,21.9c-2,0-3.9,0-5.9,0c-0.1,0-0.2,0-0.4,0C0.4,21.8,0,21.5,0,21s0.3-0.8,0.9-0.9c0.4,0,0.8,0,1.2,0c3.8,0,7.5,0,11.2,0
	c0.3,0,0.5-0.1,0.7-0.4c1-1.7,3.5-1.7,4.4,0c0.2,0.3,0.4,0.4,0.7,0.4c1.2,0,2.5,0,3.8,0c0.7,0,1.1,0.3,1,0.9c0,0.5-0.4,0.8-1,0.8
	c-1.3,0-2.6,0-3.9,0c-0.3,0-0.4,0.1-0.6,0.3c-0.5,0.9-1.3,1.4-2.3,1.4s-1.8-0.5-2.2-1.4c-0.1-0.3-0.3-0.3-0.6-0.3
	C11.4,21.9,9.3,21.9,7.2,21.9L7.2,21.9z M17.1,21c0-0.5-0.4-0.9-0.8-0.9c-0.5,0-0.9,0.4-0.9,0.8c0,0.5,0.4,0.9,0.8,0.9
	C16.7,21.9,17.1,21.5,17.1,21z"/>
<path d="M9.4,9c0-0.8,0-1.6,0-2.4s0.6-1.2,1.4-0.8c1.6,0.8,3.2,1.6,4.9,2.4C16,8.4,16.4,8.6,16.2,9c-0.1,0.3-0.3,0.7-0.6,0.8
	c-1.6,0.9-3.3,1.7-4.9,2.5c-0.7,0.4-1.3,0-1.3-0.9C9.4,10.6,9.4,9.8,9.4,9z M11.2,10.2C12,9.8,12.7,9.4,13.5,9
	c-0.8-0.4-1.6-0.8-2.3-1.2V10.2z"/>
</svg>
