<?xml version="1.0" encoding="utf-8"?>
<!-- Generator: Adobe Illustrator 28.0.0, SVG Export Plug-In . SVG Version: 6.00 Build 0)  -->
<svg version="1.1" id="Capa_1" xmlns="http://www.w3.org/2000/svg" xmlns:xlink="http://www.w3.org/1999/xlink" x="0px" y="0px"
	 viewBox="0 0 24 24" style="enable-background:new 0 0 24 24;" xml:space="preserve">
<style type="text/css">
	.st0{fill:#FFFFFF;}
</style>
<path class="st0" d="M22,10.4c-0.2,2.7-1.2,5-3,7c-2,2-4,4-5.9,6c-0.7,0.7-1.4,0.7-2.1,0c-2-2-4-4-6-6.1C-0.2,12,1.6,3.2,8.5,0.6
	c5.9-2.2,12.4,1.6,13.3,7.8C21.9,9.1,22,9.8,22,10.4z M11.8,21.4c1.9-1.8,3.8-3.6,5.7-5.4c2-2,2.8-4.5,2.4-7.3
	C19,3.3,12.9,0.3,8.1,3c-4.5,2.6-5.5,8.8-1.9,12.7c1.4,1.5,2.9,3,4.3,4.4C11,20.6,11.5,21.1,11.8,21.4L11.8,21.4z"/>
<path class="st0" d="M11.9,14c-2.2,0-4-1.8-4-4C8,7.8,9.8,6,12,6c2.2,0,4,1.8,4,4C16,12.2,14.2,14,11.9,14z M14,10c0-1.1-0.9-2-2-2
	c-1.1,0-2,0.9-2,2s0.9,2,2,2S14,11.1,14,10z"/>
</svg>
